<svg xmlns="http://www.w3.org/2000/svg" width="70" height="70" viewBox="0 0 70 70" fill="#0D2846">
<path d="M52.7859 40.5045C53.3881 41.1019 53.7273 41.9148 53.7273 42.7632C53.7273 43.6116 53.3881 44.4252 52.7859 45.0226C52.1856 45.6182 51.3727 45.9498 50.5272 45.945C49.6811 45.9498 48.8683 45.6182 48.2679 45.0226L35 31.818L21.7315 45.0226C20.9245 45.8296 19.748 46.1445 18.6457 45.8491C17.5432 45.5537 16.6823 44.6928 16.3869 43.5904C16.0915 42.4879 16.4065 41.3115 17.2135 40.5045L32.7405 24.9775C33.3379 24.3747 34.1515 24.0361 34.9999 24.0361C35.8483 24.0361 36.6612 24.3747 37.2586 24.9775L52.7859 40.5045ZM70 35C70 44.2826 66.3126 53.1841 59.7487 59.7487C53.1849 66.3126 44.2823 70 35 70C25.7177 70 16.8144 66.3126 10.2513 59.7487C3.68745 53.1849 0 44.2823 0 35C0 25.7177 3.68745 16.8144 10.2513 10.2513C16.8151 3.68821 25.7177 0 35 0C44.2823 0 53.1841 3.68745 59.7487 10.2513C66.3126 16.8151 70 25.7177 70 35ZM63.6364 35C63.6364 27.4049 60.6198 20.1211 55.249 14.7515C49.8788 9.38126 42.5951 6.36406 35.0005 6.36406C27.4053 6.36406 20.1215 9.38126 14.7519 14.7515C9.38232 20.1217 6.36452 27.4053 6.36452 35C6.36452 42.5945 9.38172 49.8783 14.7519 55.2485C20.1221 60.6193 27.4058 63.6359 35.0005 63.6359C42.595 63.6359 49.8788 60.6193 55.249 55.2485C60.6198 49.8783 63.6364 42.5947 63.6364 35Z" fill="black"/>
</svg>