<svg id="Layer_1" data-name="Layer 1" xmlns="http://www.w3.org/2000/svg" viewBox="0 0 122.19 41.24"><defs><style>.cls-1{fill:#4f4b4b;}.cls-2{fill:#eb3b5b;}.cls-3{fill:#a55fea;}.cls-4{fill:#f28241;}.cls-5{fill:#f1a71e;}.cls-6{fill:#d4de25;}.cls-7{fill:#99d19e;}.cls-8{fill:#6acacc;}</style></defs><title>full hd_svg_logo</title><path class="cls-1" d="M39.36,153.17a4.58,4.58,0,0,1-1.19,3.38,4.29,4.29,0,0,1-3.09,1.13H29.82V142.52H34c3.82,0,4.48,2.14,4.48,3.82a3.29,3.29,0,0,1-1.35,2.91,5.62,5.62,0,0,1,.69.43A4.35,4.35,0,0,1,39.36,153.17Zm-5.52-8.37H32.39v3.66h1.45a1.78,1.78,0,0,0,2-1.84C35.8,145.67,35.34,144.8,33.84,144.8ZM36.59,153c0-1.55-.93-2.52-3-2.52H32.39v4.93h1.35C35.44,155.44,36.59,155,36.59,153Z" transform="translate(-13.9 -129.38)"/><path class="cls-1" d="M43.25,145v3.33h4.53v2.51H43.25v4.39h5.62v2.46H40.33V142.52h8.34V145Z" transform="translate(-13.9 -129.38)"/><path class="cls-1" d="M57,154.71H53.15l-.72,3H49.72l4.06-15.16h2.57l4.12,15.16H57.76Zm-.63-2.47-1.31-5.17-1.32,5.17Z" transform="translate(-13.9 -129.38)"/><path class="cls-1" d="M74.6,142.52l-3.46,15.16H68.57l-1.92-9.84-1.88,9.84H62.24l-3.49-15.16h2.77l2,9.08,2.06-9.08h2.22l2,9.08,2-9.08Z" transform="translate(-13.9 -129.38)"/><path class="cls-1" d="M79.05,157.68H76V142.52h3.06Z" transform="translate(-13.9 -129.38)"/><path class="cls-1" d="M88.65,144.93H85.82v12.75H83.05V144.93H80.22v-2.41h8.43Z" transform="translate(-13.9 -129.38)"/><path class="cls-1" d="M98.38,152.67v1.11c0,2.73-1.42,4.09-4.55,4.09-2.57,0-4.41-1.42-4.41-4.09v-7.3c0-2.73,1.58-4.1,4.61-4.1,2.83,0,4.35,1.47,4.35,4.1v1.13H95.73v-1c0-1.37-.73-1.94-1.74-1.94s-1.88.37-1.88,1.8v7.38A1.65,1.65,0,0,0,94,155.6c1,0,1.78-.36,1.78-1.82v-1.11Z" transform="translate(-13.9 -129.38)"/><path class="cls-1" d="M109.42,142.52v15.16h-3v-5.56h-3.72v5.56h-3V142.52h3v7.1h3.72v-7.1Z" transform="translate(-13.9 -129.38)"/><path class="cls-1" d="M113.89,157.68h-3V142.52h3Z" transform="translate(-13.9 -129.38)"/><path class="cls-1" d="M125.26,142.52v15.16h-2.53l-4.67-10.11v10.11h-2.51V142.52h2.51v0l4.67,10.13V142.52Z" transform="translate(-13.9 -129.38)"/><path class="cls-1" d="M129.56,146.5l0,7.36a1.71,1.71,0,0,0,1.93,1.72c1,0,1.88-.34,1.88-1.8v-1.66h-1.9v-2.48h4.59v4.14c0,2.73-1.56,4.09-4.7,4.09-2.56,0-4.48-1.42-4.48-4.09V146.5c0-2.73,1.63-4.12,4.69-4.12,2.83,0,4.49,1.45,4.49,4.12v1.26h-2.69v-1.12a1.71,1.71,0,0,0-1.84-1.94C130.58,144.7,129.56,145.05,129.56,146.5Z" transform="translate(-13.9 -129.38)"/><path class="cls-2" d="M64.86,163.71a1.86,1.86,0,0,1,.68-.44,2.35,2.35,0,0,1,.86-.15,2,2,0,0,1,.91.2,2.34,2.34,0,0,1,.77.58l1-.91a3.05,3.05,0,0,0-1.18-.89,4,4,0,0,0-1.57-.3,4.19,4.19,0,0,0-1.44.25,3.41,3.41,0,0,0-1.16.73,3.34,3.34,0,0,0-.76,1.09,3.52,3.52,0,0,0-.27,1.39,3.47,3.47,0,0,0,.27,1.38,3.39,3.39,0,0,0,.76,1.1,3.12,3.12,0,0,0,1.15.72,4,4,0,0,0,1.44.26,3.84,3.84,0,0,0,1.58-.31,3.05,3.05,0,0,0,1.18-.89l-1-.91a2.37,2.37,0,0,1-.77.59,2.13,2.13,0,0,1-.91.2,2.35,2.35,0,0,1-.86-.15,2,2,0,0,1-.68-.44,2.12,2.12,0,0,1-.45-.68,2.6,2.6,0,0,1,0-1.74A2.12,2.12,0,0,1,64.86,163.71Z" transform="translate(-13.9 -129.38)"/><path class="cls-2" d="M75.91,162.78a3.4,3.4,0,0,0-1.15-.72,4.2,4.2,0,0,0-2.91,0,3.59,3.59,0,0,0-1.17.72,3.42,3.42,0,0,0-1,2.48,3.26,3.26,0,0,0,.28,1.37,3.15,3.15,0,0,0,.76,1.1,3.41,3.41,0,0,0,1.16.73,4.13,4.13,0,0,0,1.47.26,4,4,0,0,0,1.45-.26,3.4,3.4,0,0,0,1.15-.72,3.27,3.27,0,0,0,.77-1.1,3.54,3.54,0,0,0,0-2.76A3.37,3.37,0,0,0,75.91,162.78Zm-.67,3.35a2,2,0,0,1-1.11,1.12,2.23,2.23,0,0,1-.83.15,2.27,2.27,0,0,1-.83-.15,2,2,0,0,1-.66-.44,1.9,1.9,0,0,1-.44-.69,2.42,2.42,0,0,1,0-1.73,2,2,0,0,1,.44-.68,1.91,1.91,0,0,1,.67-.44,2.18,2.18,0,0,1,.82-.15,2.23,2.23,0,0,1,.83.15,1.91,1.91,0,0,1,.67.44,2.28,2.28,0,0,1,.44.68,2.6,2.6,0,0,1,0,1.74Z" transform="translate(-13.9 -129.38)"/><polygon class="cls-2" points="70.56 32.53 68.1 36.69 65.6 32.53 64.32 32.53 64.32 39.22 65.77 39.22 65.77 35.29 67.73 38.51 68.42 38.51 70.39 35.21 70.4 39.22 71.85 39.22 71.83 32.53 70.56 32.53"/><polygon class="cls-2" points="79.78 32.53 77.32 36.69 74.82 32.53 73.54 32.53 73.54 39.22 74.99 39.22 74.99 35.29 76.95 38.51 77.64 38.51 79.61 35.21 79.62 39.22 81.07 39.22 81.05 32.53 79.78 32.53"/><path class="cls-2" d="M101.13,165.6a2,2,0,0,1-.39,1.38,1.65,1.65,0,0,1-2.2,0,2,2,0,0,1-.39-1.38v-3.68H96.6v3.74a3,3,0,1,0,6.06,0v-3.74h-1.53Z" transform="translate(-13.9 -129.38)"/><polygon class="cls-2" points="94.98 36.59 91.66 32.53 90.38 32.53 90.38 39.22 91.91 39.22 91.91 35.16 95.24 39.22 96.51 39.22 96.51 32.53 94.98 32.53 94.98 36.59"/><rect class="cls-2" x="98.19" y="32.53" width="1.55" height="6.69"/><polygon class="cls-2" points="100.67 33.8 102.81 33.8 102.81 39.22 104.35 39.22 104.35 33.8 106.49 33.8 106.49 32.53 100.67 32.53 100.67 33.8"/><rect class="cls-2" x="107.42" y="32.53" width="1.55" height="6.69"/><polygon class="cls-2" points="112.19 36.43 115.29 36.43 115.29 35.23 112.19 35.23 112.19 33.77 115.7 33.77 115.7 32.53 110.65 32.53 110.65 39.22 115.83 39.22 115.83 37.98 112.19 37.98 112.19 36.43"/><path class="cls-2" d="M135.88,165.78a1.67,1.67,0,0,0-.56-.56,3.07,3.07,0,0,0-.76-.33,8.48,8.48,0,0,0-.83-.22l-.76-.19a1.66,1.66,0,0,1-.55-.26.48.48,0,0,1-.21-.41.65.65,0,0,1,.12-.39.86.86,0,0,1,.41-.27,2.18,2.18,0,0,1,.74-.11,3.63,3.63,0,0,1,.91.13,4,4,0,0,1,.94.4l.48-1.18a3.76,3.76,0,0,0-1.08-.44,5.19,5.19,0,0,0-1.24-.15,3.77,3.77,0,0,0-1.57.28,2.13,2.13,0,0,0-.94.76,1.82,1.82,0,0,0-.31,1,1.66,1.66,0,0,0,.21.88,1.76,1.76,0,0,0,.56.56,3.74,3.74,0,0,0,.76.34c.28.09.56.16.83.22l.76.2a1.72,1.72,0,0,1,.56.25.52.52,0,0,1,.21.43.57.57,0,0,1-.14.37.82.82,0,0,1-.41.25,2.2,2.2,0,0,1-.74.1,3.76,3.76,0,0,1-1.19-.2,4,4,0,0,1-1-.5l-.52,1.16a3.41,3.41,0,0,0,1.18.56,5.21,5.21,0,0,0,1.54.22,3.84,3.84,0,0,0,1.58-.29,2.18,2.18,0,0,0,.94-.75,1.85,1.85,0,0,0,.32-1A1.59,1.59,0,0,0,135.88,165.78Z" transform="translate(-13.9 -129.38)"/><rect class="cls-1" x="24.48" y="35.26" width="21.06" height="1.24"/><circle class="cls-3" cx="46.6" cy="136.55" r="2.66" transform="translate(-78.74 -84.49) rotate(-31.72)"/><path class="cls-3" d="M40.81,136a1.88,1.88,0,1,0,1.88,1.87A1.87,1.87,0,0,0,40.81,136Z" transform="translate(-13.9 -129.38)"/><circle class="cls-3" cx="43.29" cy="132.44" r="1.19" transform="translate(-106.67 33.09) rotate(-84.35)"/><circle class="cls-2" cx="24.24" cy="3.2" r="2.67"/><circle class="cls-2" cx="19.89" cy="7.17" r="1.96"/><circle class="cls-2" cx="19.37" cy="1.3" r="1.3"/><circle class="cls-4" cx="14.89" cy="4.13" r="2.66"/><circle class="cls-4" cx="13.22" cy="9.59" r="1.86"/><circle class="cls-5" cx="21.16" cy="138.75" r="2.7" transform="translate(-65.39 -110.72) rotate(-22.5)"/><circle class="cls-4" cx="9.86" cy="4.69" r="1.07"/><circle class="cls-5" cx="8.7" cy="15.2" r="1.96"/><circle class="cls-5" cx="3.21" cy="12.5" r="1.3"/><circle class="cls-6" cx="3.34" cy="17.75" r="2.67"/><path class="cls-6" d="M19.28,151.52a2,2,0,1,0,2-2A2,2,0,0,0,19.28,151.52Z" transform="translate(-13.9 -129.38)"/><circle class="cls-6" cx="1.37" cy="22.55" r="1.37"/><circle class="cls-7" cx="4.15" cy="26.94" r="2.67"/><circle class="cls-7" cx="23.7" cy="158.13" r="1.89" transform="translate(-150.09 26.82) rotate(-80.78)"/><path class="cls-7" d="M18.66,160.25a1.31,1.31,0,1,0,1.3,1.3A1.3,1.3,0,0,0,18.66,160.25Z" transform="translate(-13.9 -129.38)"/><circle class="cls-8" cx="9.49" cy="34.8" r="2.67"/><circle class="cls-8" cx="15.23" cy="33.35" r="1.91"/><circle class="cls-8" cx="12.69" cy="38.72" r="1.26"/><circle class="cls-8" cx="17.97" cy="38.64" r="2.59"/></svg>