<svg xmlns="http://www.w3.org/2000/svg" width="96" height="32" viewBox="0 0 96 32" fill="#EB3B5B"><g clip-path="url(#clip0_15_7668)" > <path d="M1.39286 16H24.6071C25.1003 16 25.5 15.6021 25.5 15.1111V12.8889C25.5 12.3979 25.1003 12 24.6071 12H1.39286C0.899721 12 0.5 12.3979 0.5 12.8889V15.1111C0.5 15.6021 0.899721 16 1.39286 16Z" /> <path d="M36.3929 16H59.6071C60.1003 16 60.5 15.6021 60.5 15.1111V12.8889C60.5 12.3979 60.1003 12 59.6071 12H36.3929C35.8997 12 35.5 12.3979 35.5 12.8889V15.1111C35.5 15.6021 35.8997 16 36.3929 16Z" /> <path d="M71.3929 16H94.6071C95.1003 16 95.5 15.6021 95.5 15.1111V12.8889C95.5 12.3979 95.1003 12 94.6071 12H71.3929C70.8997 12 70.5 12.3979 70.5 12.8889V15.1111C70.5 15.6021 70.8997 16 71.3929 16Z" /> </g> <defs> <clipPath id="clip0_15_7668" > <rect width="95" height="32" fill="white" transform="translate(0.5)" /> </clipPath> </defs> </svg>