<svg xmlns="http://www.w3.org/2000/svg" xmlns:xlink="http://www.w3.org/1999/xlink" viewBox="0 0 119.86 116.65"><defs><style>.cls-1{fill:none;}.cls-2{isolation:isolate;}.cls-3{clip-path:url(#clip-path);}.cls-4{fill:url(#Degradado_sin_nombre_246);}.cls-5{fill:url(#Degradado_sin_nombre_251);}.cls-6{fill:url(#Degradado_sin_nombre_250);}.cls-7{fill:url(#Degradado_sin_nombre_249);}.cls-8{fill:url(#Degradado_sin_nombre_248);}.cls-9{fill:url(#Degradado_sin_nombre_247);}.cls-10{fill:#161616;}.cls-11{fill:#ff4ee4;}.cls-12{fill:#fff;}.cls-13{opacity:0.3;mix-blend-mode:overlay;}.cls-14{fill:url(#Degradado_sin_nombre_247-2);}.cls-15{fill:url(#Degradado_sin_nombre_247-3);}</style><clipPath id="clip-path" transform="translate(-14.96 -91.64)"><circle class="cls-1" cx="75" cy="150" r="57.93"/></clipPath><linearGradient id="Degradado_sin_nombre_246" x1="59.93" y1="-3.48" x2="59.93" y2="35.88" gradientUnits="userSpaceOnUse"><stop offset="0" stop-color="#ff1377"/><stop offset="0.05" stop-color="#fd1274"/><stop offset="0.64" stop-color="#e6075b"/><stop offset="1" stop-color="#dd0352"/></linearGradient><linearGradient id="Degradado_sin_nombre_251" x1="59.93" y1="20.78" x2="59.93" y2="39.01" gradientUnits="userSpaceOnUse"><stop offset="0" stop-color="#ff9d43"/><stop offset="0.26" stop-color="#ff9744"/><stop offset="0.6" stop-color="#ff8745"/><stop offset="0.98" stop-color="#ff6c48"/><stop offset="1" stop-color="#ff6a48"/></linearGradient><linearGradient id="Degradado_sin_nombre_250" x1="59.93" y1="38.97" x2="59.93" y2="59.14" gradientUnits="userSpaceOnUse"><stop offset="0" stop-color="#eef248"/><stop offset="0.44" stop-color="#f5df4b"/><stop offset="0.99" stop-color="#fccb4f"/></linearGradient><linearGradient id="Degradado_sin_nombre_249" x1="59.93" y1="56.46" x2="59.93" y2="83.14" gradientUnits="userSpaceOnUse"><stop offset="0" stop-color="#00c970"/><stop offset="0.28" stop-color="#00c46f"/><stop offset="0.6" stop-color="#00b66b"/><stop offset="0.94" stop-color="#009f64"/><stop offset="1" stop-color="#009a63"/></linearGradient><linearGradient id="Degradado_sin_nombre_248" x1="59.93" y1="77.92" x2="59.93" y2="96.89" gradientUnits="userSpaceOnUse"><stop offset="0" stop-color="#4c72ef"/><stop offset="0.36" stop-color="#486fed"/><stop offset="0.74" stop-color="#3b66e9"/><stop offset="1" stop-color="#2e5ce4"/></linearGradient><linearGradient id="Degradado_sin_nombre_247" x1="59.93" y1="94.25" x2="59.93" y2="115.51" gradientUnits="userSpaceOnUse"><stop offset="0" stop-color="#ff4ee4"/><stop offset="0.26" stop-color="#f645d6"/><stop offset="0.77" stop-color="#de2eb0"/><stop offset="1" stop-color="#d1229d"/></linearGradient><linearGradient id="Degradado_sin_nombre_247-2" x1="65.09" y1="157.67" x2="74.95" y2="157.67" xlink:href="#Degradado_sin_nombre_247"/><linearGradient id="Degradado_sin_nombre_247-3" x1="60.34" y1="150.09" x2="66.23" y2="150.09" xlink:href="#Degradado_sin_nombre_247"/></defs><title>full hd_svg_logo</title><g class="cls-2"><g id="Layer_1" data-name="Layer 1"><g class="cls-3"><rect class="cls-4" width="119.86" height="19.44"/><rect class="cls-5" y="19.44" width="119.86" height="19.44"/><rect class="cls-6" y="38.88" width="119.86" height="19.44"/><rect class="cls-7" y="58.32" width="119.86" height="19.44"/><rect class="cls-8" y="77.77" width="119.86" height="19.44"/><rect class="cls-9" y="97.21" width="119.86" height="19.44"/></g><circle class="cls-10" cx="75" cy="150" r="52.36" transform="translate(-99.06 5.33) rotate(-45)"/><path class="cls-11" d="M75,181.34A31.34,31.34,0,1,1,106.34,150,31.38,31.38,0,0,1,75,181.34Zm0-61A29.63,29.63,0,1,0,104.63,150,29.66,29.66,0,0,0,75,120.37Z" transform="translate(-14.96 -91.64)"/><path class="cls-12" d="M44,118.76l-2,1.9-.82-.88a1.37,1.37,0,0,1,.07-2l5.41-5,.82.87a1.39,1.39,0,0,1,.4,1,1.37,1.37,0,0,1-.47,1l-1,.93,4.55,4.87a1.39,1.39,0,0,1,.4,1,1.41,1.41,0,0,1-.47,1l-1.35,1.25Z" transform="translate(-14.96 -91.64)"/><path class="cls-12" d="M52.19,109,56.84,107a4.42,4.42,0,0,1,2.12-.4,3.67,3.67,0,0,1,1.87.69,3.88,3.88,0,0,1,1.28,1.63,3.49,3.49,0,0,1,.3,2,2.44,2.44,0,0,1-.89,1.6l4.12,2.31-2.39,1.07a1.9,1.9,0,0,1-.9.17,1.74,1.74,0,0,1-.87-.27l-2.6-1.5-.67.3.7,1.59a1.45,1.45,0,0,1-.75,2l-1.62.72Zm6.27,2.61a1.37,1.37,0,0,0,.63-.61.93.93,0,0,0,0-.9,1.21,1.21,0,0,0-.66-.67,1.23,1.23,0,0,0-.95.06l-1.28.57.93,2.12Z" transform="translate(-14.96 -91.64)"/><path class="cls-12" d="M72.56,103.22l1,0,6.2,10.4-2.51.13a1.71,1.71,0,0,1-1-.22,1.75,1.75,0,0,1-.67-.68l-.29-.53-3.62.18-.23.56a1.76,1.76,0,0,1-.6.74,1.66,1.66,0,0,1-.92.31l-2.51.13Zm1.71,6.84-1-2.08-.77,2.17Z" transform="translate(-14.96 -91.64)"/><path class="cls-12" d="M85.71,104l1.15.4,3.48,6.34,1.1-3.19a1.46,1.46,0,0,1,1.9-.93l1.68.58-3.47,10.13-1.16-.4-3.49-6.29-1.08,3.14a1.46,1.46,0,0,1-1.89.93l-1.69-.58Z" transform="translate(-14.96 -91.64)"/><path class="cls-12" d="M96.58,120.25a8.12,8.12,0,0,1-.85-2.53l1.29-.34a1.22,1.22,0,0,1,1.2.27,2.12,2.12,0,0,1,.57.77,5.3,5.3,0,0,0,1.33,1.84,1.71,1.71,0,0,0,.77.41.52.52,0,0,0,.53-.17.53.53,0,0,0,.11-.58,4.42,4.42,0,0,0-.59-.84,3.1,3.1,0,0,1-.21-.25l-.2-.24A14.28,14.28,0,0,1,99.37,117a3.71,3.71,0,0,1-.5-1.66,2.66,2.66,0,0,1,.69-1.82,3,3,0,0,1,1.82-1.15,3.59,3.59,0,0,1,2,.2,6.6,6.6,0,0,1,1.8,1.07,6.66,6.66,0,0,1,2.47,4.16l-1.28.31a1.41,1.41,0,0,1-1.32-.29,2,2,0,0,1-.5-.64,4.89,4.89,0,0,0-1.17-1.48,1.77,1.77,0,0,0-.64-.35.48.48,0,0,0-.53.14.52.52,0,0,0-.05.62,3.85,3.85,0,0,0,.58.83,24.55,24.55,0,0,1,1.58,1.94,3.17,3.17,0,0,1,.55,1.67,2.86,2.86,0,0,1-.78,1.9,3.11,3.11,0,0,1-2.6,1.28,5.13,5.13,0,0,1-3-1.33A7.73,7.73,0,0,1,96.58,120.25Z" transform="translate(-14.96 -91.64)"/><circle class="cls-12" cx="18.21" cy="56.3" r="3.79"/><circle class="cls-12" cx="100.51" cy="56.42" r="3.79"/><path class="cls-12" d="M83.41,133.16a5.33,5.33,0,1,1-6.37-4A5.33,5.33,0,0,1,83.41,133.16ZM86.26,126c2.9,8,1.63,14.38-2.72,16.39-4.8,2.21-25.26-1.62-25.26-1.62a30.91,30.91,0,0,1,10,3.64h0c9.07,5.36,11.07,14.29,11.37,19.8,0,2.07-.37,6.27-3.71,7.32a11.94,11.94,0,0,1-10.5-1.86s6.07,2.54,10.69.53q-.43-.53-.84-1c-1-1.32-2.31-2.87-3.95-3.33-2.25-.64-6.7.3-9,0-1.49-.21-3.79-1-4.19-2.69a14.5,14.5,0,0,0,17.24,11,14.86,14.86,0,0,0,2.29-.72,15,15,0,0,0,6.78-5.27C98.72,149.79,86.26,126,86.26,126Z" transform="translate(-14.96 -91.64)"/><g class="cls-13"><path class="cls-12" d="M83.54,142.36c-4.8,2.21-25.26-1.62-25.26-1.62a30.91,30.91,0,0,1,10,3.64h0A22.12,22.12,0,0,1,76,151.8c13.29,6,14.06-8.88,13.6-16.79a48.87,48.87,0,0,0-3.34-9C89.16,134,87.89,140.35,83.54,142.36Z" transform="translate(-14.96 -91.64)"/><path class="cls-12" d="M79.37,139.53a5.33,5.33,0,1,0-6.37-4A5.33,5.33,0,0,0,79.37,139.53Z" transform="translate(-14.96 -91.64)"/></g><path class="cls-14" d="M74.1,155.57h-2v-2a.87.87,0,0,0-.86-.86H68.78a.87.87,0,0,0-.86.86v2h-2a.85.85,0,0,0-.85.85v2.49a.85.85,0,0,0,.85.85h2v2a.86.86,0,0,0,.86.85h2.48a.86.86,0,0,0,.86-.85v-2h2a.85.85,0,0,0,.85-.85v-2.49A.85.85,0,0,0,74.1,155.57Z" transform="translate(-14.96 -91.64)"/><path class="cls-15" d="M65.72,148.84H64.53v-1.19a.5.5,0,0,0-.5-.5H62.54a.5.5,0,0,0-.51.5v1.19H60.85a.51.51,0,0,0-.51.51v1.48a.51.51,0,0,0,.51.51H62v1.18a.51.51,0,0,0,.51.51H64a.5.5,0,0,0,.5-.51v-1.18h1.19a.51.51,0,0,0,.51-.51v-1.48A.51.51,0,0,0,65.72,148.84Z" transform="translate(-14.96 -91.64)"/><path class="cls-12" d="M33.94,169.39a1.3,1.3,0,0,1,.72-.78L41.74,165l.73,1.43a1.19,1.19,0,0,1-.54,1.66l-7.2,3.68-.65-1.28A1.35,1.35,0,0,1,33.94,169.39Z" transform="translate(-14.96 -91.64)"/><path class="cls-12" d="M44.61,170.53l.7.79-.08,6.3,2.2-2a1.26,1.26,0,0,1,1.83.11l1,1.16-7,6.18-.71-.8,0-6.25L40.5,178a1.26,1.26,0,0,1-.94.35,1.28,1.28,0,0,1-.89-.46l-1-1.16Z" transform="translate(-14.96 -91.64)"/><path class="cls-12" d="M52.84,179l6.34,3.86-.59,1a1.1,1.1,0,0,1-.7.57,1.23,1.23,0,0,1-.92-.22l-2.88-1.74-.68,1.12,3.14,1.9-.56.92a1.22,1.22,0,0,1-.73.6,1.18,1.18,0,0,1-.93-.2l-2.1-1.27-1.15,1.89a1.23,1.23,0,0,1-.76.57,1.18,1.18,0,0,1-.94-.16L48,186.91Z" transform="translate(-14.96 -91.64)"/><path class="cls-12" d="M61.32,192.94a4.71,4.71,0,0,1-1.3-2.11,4.85,4.85,0,0,1,0-2.51,4.73,4.73,0,0,1,3.31-3.48,5.53,5.53,0,0,1,5,1.23,4.72,4.72,0,0,1,1.34,4.61,4.81,4.81,0,0,1-1.19,2.21,4.67,4.67,0,0,1-2.12,1.28,5.56,5.56,0,0,1-5-1.23Zm4.61-1.38a2.62,2.62,0,0,0,1-1.55,3.07,3.07,0,0,0,0-1.24,2.12,2.12,0,0,0-.51-1,2,2,0,0,0-1-.59,1.91,1.91,0,0,0-1.69.3,2.62,2.62,0,0,0-1,1.56,2.58,2.58,0,0,0,.14,1.81,2.13,2.13,0,0,0,3,.75Z" transform="translate(-14.96 -91.64)"/><path class="cls-12" d="M73.39,186.21l4.41-.34a3.77,3.77,0,0,1,1.86.29A3.2,3.2,0,0,1,81,187.27a3.35,3.35,0,0,1,.57,1.71,3.13,3.13,0,0,1-.32,1.7,2.19,2.19,0,0,1-1.2,1.06l2.7,3.1-2.27.17a1.75,1.75,0,0,1-.79-.12,1.64,1.64,0,0,1-.64-.47l-1.69-2-.64,0,.12,1.51a1.23,1.23,0,0,1-.3.95,1.28,1.28,0,0,1-.9.44l-1.53.12Zm4.37,4a1.2,1.2,0,0,0,.7-.31.81.81,0,0,0,.3-.72,1.07,1.07,0,0,0-.35-.75,1,1,0,0,0-.8-.22l-1.22.09.15,2Z" transform="translate(-14.96 -91.64)"/><path class="cls-12" d="M84.1,185.1l.94-.4,5.28,2.65,1.8-5.67.91-.39,3.66,8.57-1.3.55a1.39,1.39,0,0,1-1.11,0,1.36,1.36,0,0,1-.77-.79l-.82-1.92L91.86,191,89,189.32l.82,1.91a1.39,1.39,0,0,1-.76,1.89l-1.3.55Z" transform="translate(-14.96 -91.64)"/><path class="cls-12" d="M95.74,179.38l5.55-4.93.75.84a1.16,1.16,0,0,1,.33.84,1.23,1.23,0,0,1-.47.82l-2.52,2.25.82.92,2.75-2.45.71.8a1.1,1.1,0,0,1-.1,1.71l-1.84,1.64.83.93,2.5-2.23a1.2,1.2,0,0,1,1.74.11l.69.78-5.54,4.93Z" transform="translate(-14.96 -91.64)"/><path class="cls-12" d="M103.26,172.22l2-3.38a5.19,5.19,0,0,1,1.8-1.86,4.08,4.08,0,0,1,2.28-.62,4.9,4.9,0,0,1,2.4.74,5,5,0,0,1,1.8,1.78,4.17,4.17,0,0,1,.52,2.3,5.42,5.42,0,0,1-.81,2.46l-2,3.38Zm8,.34a2,2,0,0,0,.29-1,2,2,0,0,0-.25-1.08,2.6,2.6,0,0,0-1-1,2.64,2.64,0,0,0-1.34-.42,2,2,0,0,0-1.09.28,2,2,0,0,0-.7.69l-.51.84,4.09,2.46Z" transform="translate(-14.96 -91.64)"/></g></g></svg>